<svg width="1000" height="938" viewBox="0 0 1000 938" fill="none" xmlns="http://www.w3.org/2000/svg">
<g clip-path="url(#clip0_729_1730)">
<rect width="1000" height="938" fill="#10B981"/>
<path d="M280.007 1189.41L300.007 1153.37L320.007 1117.33L340.007 1081.28L360.007 1045.24L380.007 1009.2L400.007 973.157L420.007 937.115L440.007 901.072L460.003 865.026L480.003 828.984L500.003 792.942L520.003 756.899L540.003 720.857L560.003 684.814L580.003 648.772L600.003 612.73L620.003 576.687L640.003 540.645L660.003 504.599L680.003 468.556L700.003 432.514L720.003 396.472L740.003 360.429L760.002 324.392L780.002 288.349L800.002 252.307L820.002 216.261L840.002 180.219L860.003 144.171L880.001 108.131L900.001 72.0848L920.001 36.0424L940 0L920 0L900 36.0424L880 72.0848L860.003 108.131L840.003 144.173L820.003 180.215L800.003 216.258L780.003 252.3L760.003 288.343L740.003 324.385L720.003 360.428L700.003 396.47L680.003 432.512L660.003 468.556L640.003 504.599L620.003 540.641L600.003 576.684L580.003 612.726L560.003 648.769L540.003 684.811L520.003 720.853L500.003 756.896L480.003 792.938L460.003 828.981L440.003 865.023L420.003 901.066L400.003 937.108L380.003 973.15L360.003 1009.19L340.003 1045.24L320.002 1081.28L300.002 1117.32L280.002 1153.36L260.002 1189.4L240.002 1225.45L220.002 1261.49H240.002L260.002 1225.45L280.007 1189.41Z" fill="black"/>
<path d="M240.008 1189.41L260.008 1153.37L280.009 1117.32L300.009 1081.28L320.009 1045.24L340.009 1009.2L360.009 973.155L380.009 937.113L400.009 901.07L420.009 865.028L440.009 828.986L460.009 792.943L480.009 756.897L500.009 720.855L520.009 684.813L540.009 648.77L560.009 612.728L580.009 576.685L600.009 540.643L620.009 504.601L640.009 468.558L660.01 432.516L680.01 396.473L700.01 360.431L720.003 324.392L740 288.343L760 252.3L780.002 216.261L800.002 180.219L820.002 144.176L840.001 108.131L860.002 72.0882L880.002 36.0458L900.002 0L880.002 0L860.002 36.0424L840.001 72.0848L820.002 108.131L800.002 144.173L780.002 180.215L760.002 216.258L740.002 252.3L720.002 288.343L700.002 324.385L680.002 360.428L660.002 396.47L640.002 432.512L620.002 468.555L600.002 504.597L580.002 540.64L560.002 576.682L540.002 612.724L520.002 648.767L500.002 684.809L480.009 720.855L460.009 756.897L440.009 792.94L420.009 828.982L400.009 865.025L380.009 901.067L360.009 937.109L340.009 973.152L320.009 1009.19L300.009 1045.24L280.009 1081.28L260.009 1117.32L240.009 1153.36L220.009 1189.41L200.009 1225.45L180.009 1261.49H200.009L220.009 1225.45L240.008 1189.41Z" fill="black"/>
<path d="M200.009 1189.41L220.009 1153.37L240.009 1117.33L260.009 1081.28L280.009 1045.24L300.009 1009.2L320.009 973.157L340.009 937.115L360.005 901.069L380.005 865.026L400.005 828.984L420.005 792.942L440.005 756.898L460.005 720.855L480.005 684.813L500.006 648.77L520.006 612.728L540.006 576.685L560.006 540.641L580.006 504.599L600.006 468.556L620.006 432.514L640.006 396.472L660.006 360.429L680.003 324.392L700.003 288.349L720.003 252.307L740.003 216.261L760.006 180.214L780.006 144.171L800.002 108.131L820.002 72.0882L840.002 36.0458L860.002 0L840.002 0L820.002 36.0424L800.001 72.0848L780.002 108.131L760.006 144.171L740.006 180.214L720.006 216.256L700.006 252.299L680.006 288.341L660.006 324.383L640.006 360.426L620.006 396.468L600.006 432.511L580.006 468.553L560.006 504.596L540.006 540.638L520.006 576.68L500.006 612.723L480.005 648.765L460.005 684.808L440.005 720.85L420.005 756.893L400.005 792.935L380.005 828.977L360.005 865.02L340.005 901.062L320.005 937.105L300.005 973.147L280.005 1009.19L260.005 1045.23L240.005 1081.27L220.005 1117.32L200.005 1153.36L180.005 1189.4L160.005 1225.45L140.005 1261.5H160.005L180.005 1225.45L200.009 1189.41Z" fill="black"/>
<path d="M160.009 1189.41L180.011 1153.37L200.011 1117.33L220.011 1081.28L240.011 1045.24L260.011 1009.2L280.011 973.157L300.011 937.115L320.011 901.072L340.011 865.03L360.011 828.987L380.011 792.942L400.011 756.899L420.011 720.857L440.002 684.813L460.002 648.77L480.002 612.728L500.002 576.685L520.002 540.643L540.002 504.601L560.002 468.558L580.002 432.516L600.002 396.473L620.002 360.431L640.002 324.392L660.002 288.349L680.002 252.307L700.003 216.261L720.003 180.219L740.002 144.171L760.002 108.131L780.002 72.0848L800.002 36.0424L820.002 0L800.002 0L780.002 36.0424L760.001 72.0848L740.002 108.131L720.002 144.173L700.002 180.215L680.002 216.258L660.002 252.3L640.002 288.343L620.002 324.385L600.002 360.428L580.002 396.47L560.002 432.512L540.002 468.555L520.002 504.597L500.002 540.64L480.002 576.682L460.002 612.724L440.002 648.767L420.002 684.809L400.002 720.852L380.011 756.897L360.011 792.94L340.011 828.982L320.011 865.025L300.011 901.067L280.011 937.109L260.011 973.152L240.011 1009.19L220.011 1045.24L200.011 1081.28L180.011 1117.32L160.01 1153.36L140.01 1189.41L120.01 1225.45L100.01 1261.49H120.01L140.01 1225.45L160.009 1189.41Z" fill="black"/>
<path d="M120.009 1189.41L140.009 1153.37L160.009 1117.33L180.009 1081.28L200.009 1045.24L220.009 1009.2L240.009 973.157L260.007 937.111L280.007 901.069L300.007 865.026L320.007 828.984L340.007 792.942L360.007 756.899L380.007 720.857L400.007 684.814L420.007 648.772L440.007 612.73L460.007 576.684L480.007 540.641L500.007 504.599L520.007 468.556L540.007 432.514L560.008 396.472L580.008 360.429L600.004 324.392L620.004 288.349L640.004 252.307L660.008 216.261L680.008 180.219L700.008 144.176L719.999 108.131L739.999 72.0882L759.999 36.0458L780.001 0L760.001 0L740.001 36.0424L719.999 72.0848L700.002 108.131L680.002 144.173L660.002 180.215L640.002 216.258L620.002 252.3L600.002 288.343L580.002 324.385L560.002 360.428L540.002 396.47L520.002 432.512L500.002 468.555L480.002 504.597L460.002 540.64L440.002 576.682L420.002 612.724L400.002 648.767L380.002 684.809L360.002 720.852L340.002 756.894L320.002 792.937L300.002 828.979L280.001 865.021L260.001 901.064L240.001 937.106L220.001 973.149L200.001 1009.19L180.001 1045.23L160.001 1081.28L140.001 1117.32L120.001 1153.36L100.001 1189.4L80.0011 1225.45L60.001 1261.49H80.0011L100.001 1225.45L120.009 1189.41Z" fill="black"/>
<path d="M80.0131 1189.41L100.013 1153.37L120.013 1117.33L140.013 1081.28L160.013 1045.24L180.013 1009.2L200.013 973.157L220.013 937.115L240.013 901.072L260.013 865.03L280.013 828.987L300.014 792.945L320.014 756.903L340.004 720.855L360.004 684.813L380.004 648.77L400.004 612.728L420.004 576.685L440.004 540.643L460.005 504.601L480.005 468.558L500.005 432.516L520.005 396.473L540.005 360.428L560.005 324.392L580.005 288.343L600.005 252.3L620.004 216.261L640.004 180.219L660.004 144.176L680.003 108.131L700.003 72.0882L720.003 36.0458L740.005 0L720.005 0L700.005 36.0424L680.005 72.0848L660.004 108.131L640.004 144.173L620.004 180.215L600.005 216.261L580.005 252.304L560.005 288.346L540.005 324.392L520.005 360.434L500.005 396.477L480.005 432.519L460.005 468.562L440.004 504.604L420.004 540.646L400.004 576.689L380.004 612.731L360.004 648.774L340.004 684.816L320.004 720.858L300.004 756.901L280.004 792.943L260.004 828.986L240.004 865.028L220.004 901.071L200.004 937.113L180.004 973.155L160.004 1009.2L140.004 1045.24L120.004 1081.28L100.004 1117.33L80.0039 1153.37L60.0038 1189.41L40.0038 1225.45L20.0037 1261.49H40.0038L60.0038 1225.45L80.0131 1189.41Z" fill="black"/>
<path d="M40.0102 1189.41L60.0103 1153.37L80.0103 1117.33L100.01 1081.28L120.009 1045.24L140.009 1009.2L160.01 973.154L180.01 937.111L200.01 901.069L220.01 865.026L240.01 828.984L260.01 792.942L280.01 756.899L300.01 720.857L320.01 684.814L340.01 648.772L360.01 612.728L380.01 576.685L400.01 540.643L420.01 504.601L440.01 468.558L460.01 432.516L480.01 396.473L500.01 360.431L520.005 324.392L540.005 288.349L560.005 252.307L580.005 216.261L600.005 180.219L620.001 144.171L640.004 108.131L660.004 72.0882L680.004 36.0458L700.003 0L680.003 0L660.003 36.0424L640.003 72.0848L620.001 108.131L600.001 144.173L580.001 180.215L560.001 216.258L540.001 252.3L520.001 288.343L500.001 324.385L480.001 360.428L460.001 396.47L440.001 432.512L420.001 468.555L400.001 504.597L380.001 540.64L360.001 576.682L340.001 612.724L320.001 648.767L300.001 684.809L280 720.852L260 756.894L240 792.937L220 828.979L200 865.021L180 901.064L160 937.106L140 973.149L120 1009.19L100 1045.23L80.0001 1081.28L60.0001 1117.32L40 1153.36L20 1189.4L-5.92834e-05 1225.45V1261.49L20 1225.45L40.0102 1189.41Z" fill="black"/>
<path d="M40.0056 1117.32L60.0057 1081.28L80.0057 1045.24L100.006 1009.2L120.006 973.155L140.006 937.113L160.006 901.07L180.006 865.028L200.006 828.986L220.006 792.943L240.006 756.897L260.006 720.855L280.006 684.813L300.006 648.77L320.006 612.728L340.006 576.685L360.006 540.643L380.006 504.601L400.006 468.558L420.006 432.516L440.006 396.47L460.006 360.428L480.005 324.392L500.005 288.349L520.006 252.307L540.005 216.261L560.005 180.219L580.005 144.176L600.004 108.131L620.004 72.0882L640.007 36.0424L660.003 0L640.007 0L620.007 36.0424L600.007 72.0848L580.004 108.131L560.004 144.173L540.004 180.215L520.004 216.258L500.004 252.3L480.004 288.343L460.004 324.385L440.004 360.428L420.003 396.47L400.003 432.512L380.003 468.555L360.003 504.597L340.003 540.64L320.003 576.682L300.003 612.724L280.003 648.767L260.003 684.809L240.003 720.852L220.003 756.894L200.003 792.937L180.003 828.979L160.003 865.021L140.003 901.064L120.003 937.106L100.003 973.149L80.0028 1009.19L60.0028 1045.23L40.0028 1081.28L20.0027 1117.32L0.00276307 1153.36V1189.4L20.0027 1153.36L40.0056 1117.32Z" fill="black"/>
<path d="M40.0102 1045.24L60.0121 1009.2L80.0121 973.155L100.012 937.113L120.012 901.071L140.012 865.028L160.012 828.986L180.012 792.943L200.012 756.901L220.012 720.858L240.012 684.816L260.012 648.77L280.012 612.728L300.013 576.685L320.003 540.641L340.003 504.599L360.003 468.556L380.003 432.514L400.003 396.472L420.004 360.429L440.006 324.392L460.006 288.349L480.006 252.307L500.006 216.261L520.004 180.214L540.004 144.171L560.005 108.131L580.005 72.0882L600.005 36.0458L620.004 0L600.004 0L580.004 36.0424L560.004 72.0848L540.006 108.131L520.004 144.171L500.004 180.214L480.004 216.256L460.004 252.299L440.004 288.341L420.004 324.383L400.003 360.426L380.003 396.468L360.003 432.511L340.003 468.553L320.003 504.596L300.003 540.638L280.003 576.68L260.003 612.723L240.003 648.765L220.003 684.808L200.003 720.85L180.003 756.892L160.003 792.935L140.003 828.977L120.003 865.02L100.003 901.062L80.0028 937.105L60.0028 973.147L40.0027 1009.19L20.0027 1045.23L0.00262618 1081.27V1117.32L20.0027 1081.27L40.0102 1045.24Z" fill="black"/>
<path d="M40.0104 973.154L60.0104 937.111L80.0104 901.069L100.01 865.026L120.01 828.984L140.009 792.942L160.009 756.898L180.009 720.855L200.009 684.813L220.009 648.77L240.009 612.728L260.009 576.685L280.009 540.643L300.009 504.601L320.009 468.558L340.009 432.512L360.009 396.47L380.009 360.428L400.006 324.392L420.006 288.349L440.006 252.307L460.006 216.261L480.006 180.219L500.006 144.176L520.005 108.131L540.009 72.0848L560.009 36.0424L580.005 0L560.005 0L540.009 36.0424L520.009 72.0848L500.006 108.131L480.006 144.173L460.006 180.215L440.006 216.258L420.006 252.3L400.005 288.343L380.005 324.385L360.005 360.428L340.009 396.47L320.009 432.512L300.009 468.555L280.009 504.597L260.009 540.64L240.009 576.682L220.009 612.724L200.009 648.767L180.009 684.809L160.009 720.852L140.009 756.898L120.009 792.94L100.009 828.982L80.0086 865.025L60.0086 901.067L40.0085 937.11L20.0085 973.152L0.00837417 1009.19V1045.24L20.0085 1009.2L40.0104 973.154Z" fill="black"/>
<path d="M40.0102 901.069L60.0103 865.026L80.0103 828.984L100.01 792.942L120.01 756.899L140.01 720.857L160.01 684.814L180.01 648.772L200.01 612.73L220.005 576.684L240.005 540.641L260.005 504.599L280.005 468.556L300.005 432.514L320.005 396.472L340.005 360.429L360.006 324.392L380.006 288.349L400.006 252.307L420.005 216.261L440.005 180.219L460.005 144.171L480.005 108.131L500.006 72.0848L520.006 36.0424L540.005 0L520.005 0L500.005 36.0424L480.005 72.0848L460.005 108.131L440.005 144.173L420.005 180.215L400.005 216.258L380.005 252.3L360.005 288.343L340.005 324.385L320.005 360.428L300.005 396.47L280.005 432.512L260.005 468.555L240.005 504.597L220.005 540.64L200.005 576.682L180.005 612.724L160.005 648.767L140.005 684.809L120.005 720.852L100.005 756.894L80.0047 792.937L60.0047 828.979L40.0046 865.021L20.0046 901.064L0.0045122 937.106V973.149L20.0046 937.106L40.0102 901.069Z" fill="black"/>
<path d="M880.002 1189.41L900.001 1153.37L920.001 1117.32L940.001 1081.28L960.001 1045.24L980 1009.2L1000 973.155V937.104L980 973.147L960 1009.19L940.001 1045.24L920.001 1081.28L900.001 1117.32L880.001 1153.36L860.001 1189.4L840.001 1225.45L820.001 1261.49H840.001L860.001 1225.45L880.002 1189.41Z" fill="black"/>
<path d="M40.0104 828.984L60.0104 792.942L80.0105 756.899L100.01 720.857L120.011 684.814L140.011 648.772L160.011 612.73L180.011 576.687L200.011 540.645L220.011 504.602L240.011 468.556L260.011 432.514L280.011 396.472L300.011 360.429L320.007 324.392L340.007 288.349L360.007 252.307L380.006 216.261L400.006 180.219L420.006 144.176L440.006 108.131L460.006 72.0882L480.006 36.0458L500.002 0L480.002 0L460.002 36.0424L440.002 72.0848L420.006 108.131L400.005 144.173L380.005 180.215L360.005 216.258L340.005 252.3L320.005 288.343L300.005 324.385L280.005 360.428L260.005 396.47L240.005 432.512L220.005 468.555L200.005 504.597L180.005 540.64L160.005 576.682L140.005 612.724L120.005 648.767L100.005 684.809L80.0049 720.852L60.0048 756.894L40.0048 792.937L20.0048 828.979L0.00475308 865.021V901.064L20.0048 865.021L40.0104 828.984Z" fill="black"/>
<path d="M840.002 1189.41L860.002 1153.37L880.002 1117.33L900.002 1081.28L920.001 1045.24L940.001 1009.2L960.001 973.155L980 937.111L1000 901.069V865.026L980 901.069L960 937.111L940 973.154L920 1009.2L900 1045.24L880 1081.28L860 1117.32L840 1153.37L820 1189.41L800 1225.45L780 1261.49H800L820 1225.45L840.002 1189.41Z" fill="black"/>
<path d="M40.0102 756.898L60.0102 720.855L80.0103 684.813L100.01 648.77L120.008 612.728L140.008 576.685L160.008 540.643L180.008 504.601L200.008 468.558L220.008 432.516L240.008 396.473L260.008 360.431L280.008 324.392L300.008 288.343L320.008 252.299L340.007 216.261L360.007 180.219L380.007 144.176L400.006 108.131L420.006 72.0882L440.006 36.0458L460.006 0L440.006 0L420.006 36.0424L400.006 72.0848L380.006 108.131L360.006 144.173L340.006 180.215L320.008 216.261L300.008 252.304L280.008 288.346L260.008 324.392L240.008 360.434L220.008 396.477L200.008 432.519L180.008 468.562L160.008 504.604L140.008 540.646L120.008 576.689L100.008 612.731L80.0075 648.774L60.0074 684.816L40.0074 720.858L20.0074 756.901L0.00731058 792.943L0.00731058 828.986L20.0074 792.943L40.0102 756.898Z" fill="black"/>
<path d="M800 1189.41L820 1153.37L840 1117.32L860.002 1081.28L880.002 1045.24L900.002 1009.19L920.001 973.148L940.001 937.105L960.001 901.063L980 865.027L1000 828.983V792.94L980 828.983L960 865.025L940 901.068L920 937.11L900.001 973.148L880.001 1009.19L860.001 1045.23L840.001 1081.27L820.001 1117.32L800.001 1153.36L780.001 1189.4L760.001 1225.44L740 1261.49H760.001L780.001 1225.44L800 1189.41Z" fill="black"/>
<path d="M40.0103 684.813L60.0103 648.77L80.0103 612.728L100.01 576.685L120.01 540.643L140.013 504.599L160.013 468.556L180.013 432.514L200.004 396.47L220.004 360.428L240.008 324.392L260.008 288.349L280.008 252.307L300.007 216.261L320.007 180.219L340.007 144.176L360.007 108.131L380.007 72.0882L400.004 36.0424L420.006 0L400.004 0L380.004 36.0424L360.004 72.0848L340.007 108.131L320.007 144.173L300.007 180.215L280.007 216.258L260.007 252.3L240.007 288.343L220.007 324.385L200.007 360.428L180.007 396.47L160.007 432.512L140.007 468.555L120.007 504.597L100.007 540.64L80.0066 576.682L60.0066 612.724L40.0066 648.767L20.0065 684.809L0.00646647 720.852V756.897L20.0065 720.855L40.0103 684.813Z" fill="black"/>
<path d="M760.002 1189.41L780.002 1153.37L800 1117.33L820 1081.28L840 1045.24L860 1009.2L880 973.157L900 937.115L920 901.073L940 865.03L960 828.988L980 792.942L1000 756.9V720.855L980 756.898L960 792.94L940 828.983L920 865.025L900 901.068L880 937.11L860 973.152L840 1009.19L820 1045.24L800 1081.28L780 1117.32L760 1153.36L740 1189.41L719.999 1225.45L699.999 1261.49H719.999L740 1225.45L760.002 1189.41Z" fill="black"/>
<path d="M40.0094 612.728L60.0094 576.685L80.0094 540.643L100.009 504.601L120.009 468.558L140.01 432.516L160.01 396.473L180.01 360.431L200.008 324.392L220.01 288.343L240.01 252.3L260.008 216.261L280.008 180.219L300.008 144.176L320.007 108.131L340.007 72.0882L360.007 36.0458L380.006 0L360.006 0L340.006 36.0424L320.006 72.0848L300.007 108.131L280.007 144.173L260.007 180.215L240.007 216.258L220.007 252.3L200.007 288.343L180.007 324.385L160.007 360.428L140.007 396.47L120.007 432.512L100.007 468.555L80.0066 504.597L60.0066 540.64L40.0066 576.682L20.0066 612.724L0.00650995 648.767V684.809L20.0093 648.77L40.0094 612.728Z" fill="black"/>
<path d="M720.003 1189.41L740.003 1153.37L760.002 1117.32L780.002 1081.28L800 1045.24L820.002 1009.19L840.002 973.149L860.002 937.106L880.002 901.064L900.002 865.022L920.002 828.979L940.002 792.937L960.001 756.898L980 720.855L1000 684.813V648.771L980 684.813L960 720.855L940 756.898L920 792.94L900 828.983L880 865.025L860 901.067L840 937.11L820 973.152L800 1009.19L780 1045.23L760 1081.28L740 1117.32L719.999 1153.36L699.999 1189.4L679.999 1225.45L659.999 1261.49H679.999L700.003 1225.45L720.003 1189.41Z" fill="black"/>
<path d="M40.0093 540.641L60.0093 504.599L80.0093 468.556L100.006 432.512L120.006 396.47L140.006 360.428L160.009 324.392L180.009 288.349L200.009 252.307L220.008 216.261L240.008 180.219L260.008 144.176L280.007 108.131L300.006 72.0848L320.006 36.0424L340.006 0L320.006 0L300.006 36.0424L280.006 72.0848L260.007 108.131L240.007 144.173L220.007 180.215L200.007 216.258L180.007 252.3L160.007 288.343L140.007 324.385L120.007 360.428L100.007 396.47L80.0066 432.512L60.0065 468.555L40.0065 504.597L20.0064 540.64L0.00644927 576.682V612.724L20.0064 576.682L40.0093 540.641Z" fill="black"/>
<path d="M680.003 1189.41L700.003 1153.37L720.003 1117.32L740.003 1081.28L760.003 1045.24L780.003 1009.2L800 973.153L820 937.111L840 901.069L860 865.026L880 828.984L900 792.941L920 756.899L940 720.857L960 684.814L980 648.768L1000 612.726V576.684L980 612.726L960 648.768L940 684.811L920 720.853L900 756.896L880 792.938L860 828.98L840 865.023L820 901.065L800 937.108L780 973.15L760 1009.19L740 1045.23L719.999 1081.28L699.999 1117.32L679.999 1153.36L659.999 1189.4L639.999 1225.45L619.999 1261.49H639.999L659.999 1225.45L680.003 1189.41Z" fill="black"/>
<path d="M40.0101 468.556L60.0101 432.514L80.0101 396.472L100.01 360.429L120.012 324.392L140.012 288.349L160.012 252.307L180.008 216.261L200.008 180.219L220.009 144.176L240.008 108.131L260.008 72.0882L280.008 36.0458L300.007 0L280.007 0L260.007 36.0424L240.007 72.0848L220.009 108.131L200.008 144.173L180.008 180.215L160.008 216.258L140.008 252.3L120.012 288.343L100.012 324.385L80.012 360.428L60.012 396.47L40.0119 432.512L20.0119 468.555L0.0118322 504.597V540.64L20.0119 504.597L40.0101 468.556Z" fill="black"/>
<path d="M640.004 1189.41L660.004 1153.37L680.004 1117.32L700.004 1081.28L720.003 1045.23L740.003 1009.19L760.003 973.15L780.002 937.104L800 901.069L820 865.026L840 828.984L860 792.941L880 756.899L900 720.856L920 684.814L940 648.772L960 612.729L980 576.685L1000 540.641V504.599L980 540.641L960 576.683L940 612.726L920 648.768L900 684.811L880 720.853L860 756.896L840 792.938L820 828.98L800 865.023L780 901.065L760 937.108L739.999 973.15L719.999 1009.19L699.999 1045.23L679.999 1081.28L659.999 1117.32L639.999 1153.36L619.999 1189.4L599.999 1225.45L580.005 1261.5H600.005L620.005 1225.45L640.004 1189.41Z" fill="black"/>
<path d="M40.0103 396.47L60.0104 360.428L80.0095 324.392L100.01 288.349L120.01 252.307L140.009 216.261L160.009 180.219L180.009 144.171L200.009 108.131L220.009 72.0882L240.009 36.0458L260.008 0L240.008 0L220.008 36.0424L200.009 72.0848L180.009 108.131L160.009 144.173L140.009 180.215L120.009 216.258L100.009 252.3L80.0086 288.343L60.0085 324.385L40.0085 360.428L20.0084 396.47L0.00839538 432.512V468.555L20.0084 432.512L40.0103 396.47Z" fill="black"/>
<path d="M600.004 1189.41L620.004 1153.37L640.004 1117.33L660.004 1081.28L680.004 1045.24L700.004 1009.2L720.004 973.156L740.004 937.114L760.004 901.071L780.004 865.029L800 828.983L820 792.941L840 756.899L860 720.856L880 684.814L900 648.771L920 612.729L940 576.686L960 540.644L980 504.598L1000 468.556V432.512L980 468.554L960 504.597L940 540.639L920 576.681L900 612.724L880 648.766L860 684.809L840 720.851L820 756.893L800 792.936L780 828.978L760 865.021L740 901.063L720 937.106L699.999 973.148L679.999 1009.19L659.999 1045.23L639.999 1081.28L619.999 1117.32L599.999 1153.36L579.999 1189.4L559.999 1225.44L539.999 1261.49H559.999L579.999 1225.44L600.004 1189.41Z" fill="black"/>
<path d="M40.0096 324.392L60.0096 288.349L80.005 252.299L100.01 216.261L120.01 180.219L140.01 144.176L160.009 108.131L180.009 72.0882L200.009 36.0458L220.008 0L200.008 0L180.008 36.0424L160.008 72.0848L140.009 108.131L120.009 144.173L100.009 180.215L80.005 216.261L60.005 252.304L40.005 288.346L20.0142 324.392L0.0141494 360.434V396.477L20.0142 360.428L40.0096 324.392Z" fill="black"/>
<path d="M560.005 1189.41L580.005 1153.37L600.005 1117.32L620.004 1081.28L640.004 1045.23L660.004 1009.19L680.003 973.146L700.003 937.104L720.003 901.061L740.003 865.019L760.003 828.977L780.003 792.934L800 756.897L820 720.854L840 684.812L860 648.769L880 612.727L900 576.685L920.001 540.641L940.001 504.598L960.001 468.556L980 432.512L1000 396.469V360.427L980 396.469L960 432.512L940 468.554L920 504.596L900 540.639L880 576.681L860 612.724L840 648.766L820 684.809L800 720.851L780 756.893L760 792.936L739.999 828.978L719.999 865.021L699.999 901.063L679.999 937.106L659.999 973.148L639.999 1009.19L619.999 1045.23L599.999 1081.28L579.999 1117.32L559.999 1153.36L540.008 1189.41L520.008 1225.45L500.008 1261.49H520.008L540.008 1225.45L560.005 1189.41Z" fill="black"/>
<path d="M40.0104 252.299L60.0104 216.261L80.0104 180.219L100.011 144.171L120.01 108.131L140.01 72.0882L160.01 36.0458L180.009 0L160.009 0L140.009 36.0424L120.009 72.0848L100.011 108.131L80.0114 144.173L60.0114 180.215L40.0113 216.258L20.0113 252.3L0.0112209 288.343V324.392L20.0113 288.349L40.0104 252.299Z" fill="black"/>
<path d="M520.005 1189.41L540.008 1153.37L560.008 1117.33L580.008 1081.28L600.008 1045.24L620.008 1009.2L640.009 973.157L660.009 937.115L680.009 901.072L700.009 865.03L720.009 828.987L740.009 792.945L760.009 756.903L780.009 720.86L800 684.813L820 648.77L840 612.728L860 576.685L880 540.643L900 504.601L920 468.558L940 432.516L960 396.473L980 360.436L1000 324.385V288.343L980 324.385L960.001 360.436L940.001 396.478L920.001 432.521L900.001 468.563L880.001 504.606L860.001 540.648L840.001 576.69L820.001 612.733L800 648.775L780 684.818L760 720.86L740 756.903L720 792.945L700 828.987L680 865.03L660 901.072L640 937.115L620 973.157L600 1009.2L580 1045.24L560 1081.28L540 1117.33L520 1153.37L500 1189.41L480 1225.45L460 1261.5H480L500 1225.45L520.005 1189.41Z" fill="black"/>
<path d="M40.01 180.214L60.0101 144.171L80.0092 108.131L100.009 72.0882L120.009 36.0458L140.009 0L120.009 0L100.009 36.0424L80.0092 72.0848L60.0101 108.131L40.01 144.173L20.01 180.215L0.00994803 216.258V252.3L20.01 216.261L40.01 180.214Z" fill="black"/>
<path d="M480.006 1189.41L500.006 1153.37L520.005 1117.32L540.008 1081.28L560.008 1045.24L580.005 1009.19L600.005 973.149L620.005 937.107L640.005 901.064L660.005 865.022L680.005 828.98L700.005 792.937L720.005 756.895L740.005 720.852L760.005 684.81L780.005 648.768L800 612.728L820 576.686L840 540.644L860 504.601L880 468.559L900 432.516L920 396.474L940 360.432L960 324.389L980 288.343L1000 252.299V216.257L980 252.299L960 288.342L940 324.384L920 360.427L900 396.469L880 432.511L860 468.554L840 504.596L820 540.639L800 576.681L780 612.723L760 648.766L740 684.808L719.999 720.851L699.999 756.893L679.999 792.936L659.999 828.978L639.999 865.02L619.999 901.063L599.999 937.105L579.999 973.148L559.999 1009.19L540.008 1045.24L520.008 1081.28L500.008 1117.33L480.008 1153.37L460.008 1189.41L440.008 1225.45L420.008 1261.5H440.008L460.005 1225.45L480.006 1189.41Z" fill="black"/>
<path d="M40.0104 108.131L60.0104 72.0882L80.0104 36.0458L100.01 0L80.0095 0L60.0094 36.0424L40.0094 72.0848L20.0103 108.131L0.0130485 144.171V180.214L20.0103 144.171L40.0104 108.131Z" fill="black"/>
<path d="M440.005 1189.41L460.005 1153.37L480.006 1117.32L500.006 1081.28L520.006 1045.24L540.008 1009.2L560.008 973.153L580.008 937.111L600.009 901.068L620.009 865.026L640.009 828.983L660.009 792.941L680.009 756.898L700.009 720.856L720.009 684.814L740.009 648.771L760.009 612.729L780.009 576.686L800 540.641L820 504.598L840 468.556L860 432.513L880 396.471L900 360.428L920 324.386L940.001 288.347L960.001 252.298L980 216.255L1000 180.216V144.169L980 180.216L960 216.259L940 252.301L920.001 288.347L900.001 324.389L880.001 360.432L860.001 396.474L840.001 432.517L820.001 468.559L800.001 504.602L780.001 540.644L760 576.686L740 612.729L720 648.771L700 684.814L680 720.856L660 756.898L640 792.941L620 828.983L600 865.026L580 901.068L560 937.111L540 973.153L520 1009.2L500 1045.24L480 1081.28L460 1117.32L440 1153.37L420 1189.41L400 1225.45L380 1261.49H400L420 1225.45L440.005 1189.41Z" fill="black"/>
<path d="M40.0105 36.0424L60.0105 0L40.0105 0L20.0104 36.0424L0.0103732 72.0848L0.0103732 108.131L20.0104 72.0882L40.0105 36.0424Z" fill="black"/>
<path d="M400.006 1189.41L420.006 1153.37L440.006 1117.32L460.006 1081.28L480.006 1045.23L500.006 1009.19L520.006 973.15L540.008 937.104L560.008 901.062L580.008 865.019L600.009 828.977L620.009 792.934L640.009 756.892L660.009 720.85L680.009 684.807L700.009 648.765L720.009 612.722L740.009 576.68L760.009 540.637L780.009 504.595L800 468.556L820 432.513L840 396.471L860 360.429L880 324.386L900 288.344L920 252.301L940 216.259L960.001 180.213L980 144.171L1000 108.128V72.0859L980 108.128L960 144.171L940 180.213L920 216.256L900 252.298L880 288.34L860 324.383L840 360.425L820 396.468L800 432.51L780 468.553L760 504.595L740 540.637L719.999 576.68L699.999 612.722L679.999 648.765L659.999 684.807L639.999 720.85L619.999 756.892L599.999 792.934L579.999 828.977L559.999 865.019L539.999 901.062L519.999 937.104L499.999 973.146L479.999 1009.19L459.999 1045.23L439.999 1081.27L419.999 1117.32L400.006 1153.37L380.006 1189.41L360.006 1225.45L340.008 1261.5H360.008L380.008 1225.45L400.006 1189.41Z" fill="black"/>
<path d="M320.007 1189.41L340.007 1153.37L360.007 1117.33L380.006 1081.28L400.006 1045.24L420.006 1009.2L440.006 973.155L460.006 937.113L480.006 901.071L500.006 865.028L520.007 828.986L540.007 792.943L560.007 756.901L580.007 720.855L600.007 684.813L620.007 648.77L640.007 612.728L660.007 576.685L680.007 540.643L700.007 504.601L720.007 468.558L740.007 432.516L760.007 396.473L780.007 360.431L800.002 324.392L820.003 288.349L839.998 252.299L860.002 216.261L880.002 180.219L900.002 144.176L920.001 108.131L940.001 72.0848L960 36.0424L980 0L960 0L940 36.0424L920 72.0848L900.001 108.131L880.001 144.173L860.001 180.215L839.998 216.261L819.998 252.304L799.998 288.346L779.998 324.388L759.998 360.431L739.998 396.473L719.998 432.516L699.998 468.558L679.998 504.601L659.998 540.643L639.997 576.685L619.997 612.728L599.997 648.77L579.997 684.813L559.997 720.855L539.997 756.898L519.997 792.94L499.997 828.982L479.997 865.025L459.997 901.067L439.997 937.11L419.997 973.152L399.997 1009.19L380.006 1045.24L360.006 1081.28L340.006 1117.33L320.006 1153.37L300.006 1189.41L280.006 1225.45L260.006 1261.49H280.006L300.006 1225.45L320.007 1189.41Z" fill="black"/>
<path d="M0.00996557 0V36.0424L20.01 0L0.00996557 0Z" fill="black"/>
<path d="M360.007 1189.41L380.007 1153.37L400.007 1117.33L420.007 1081.28L440.007 1045.24L460.007 1009.2L480.007 973.157L500.007 937.115L520.007 901.072L540.008 865.026L560.008 828.984L580.009 792.942L600.009 756.899L620.009 720.857L640.009 684.814L660.009 648.772L680.009 612.73L700.009 576.687L720.009 540.645L740.009 504.602L760.009 468.56L780.009 432.517L800 396.47L820 360.428L840.002 324.392L860.002 288.349L880.002 252.307L900.001 216.261L920.001 180.219L940.001 144.171L960.001 108.131L980 72.0848L1000 36.0424V0L980 36.0424L960 72.0848L940.001 108.131L920.001 144.173L900.001 180.215L880.001 216.258L860.001 252.3L840.001 288.343L820.001 324.385L800.001 360.428L780.001 396.47L760.001 432.512L740 468.555L720 504.597L700 540.64L680 576.682L660 612.724L640 648.767L620 684.809L600 720.852L580 756.894L560 792.937L540 828.979L520 865.021L500 901.064L480 937.106L460 973.149L440 1009.19L420 1045.23L400 1081.28L380 1117.32L360 1153.36L340 1189.4L320 1225.45L300 1261.49H320L340.008 1225.45L360.007 1189.41Z" fill="black"/>
</g>
<defs>
<clipPath id="clip0_729_1730">
<rect width="1000" height="938" fill="white"/>
</clipPath>
</defs>
</svg>
